Patient4_TMGait_0pt4_01_right_29_EMG.mot
version=1
nRows=13
nColumns=33
inDegrees=no
endheader
time	1LAddLong	2LGlutMax	3LGlutMed	4LIliopsoas	5LSemiMemb	6LBicFemLong	7LRecFem	8LVastMed	9LVastLat	10LGasMed	11LTibAnt	12lTibPost	13LPeroneusLong	14LSol	15LExtDigLong	16LFlexDigLong	17RAddLong	18RGlutMax	19RGlutMed	20RIliopsoas	21RSemiMemb	22RBicFemLong	23RRecFem	24RVastMed	25RVastLat	26RGasMed	27RTibAnt	28RTibPost	29RPeroneusLong	30RSol	31RExtDigLong	32RFlexDigLong
37.882	-0.00946	0.012512	-0.25055	-0.009003	0.007019	-0.021667	0.090485	-0.004425	0.1506	0.000458	0.04364	0.005646	-0.007477	-0.19928	-0.51331	-0.018158	0.071869	-1.4024	-0.16708	0.14816	0.29037	-0.22201	0.35355	-0.035706	0.20081	-0.001373	0.12207	0.029907	0.22812	-0.082703	-0.002441	-0.014801
37.883	-0.003662	0.00946	-0.24048	-0.013733	0.004578	-0.021667	0.20508	-0.001373	0.13534	-0.006256	0.04425	0.000916	-0.0383	-0.21316	-0.18692	-0.02243	-0.02121	-1.3593	0.090332	0.010986	0.19226	-0.069122	0.5069	0.061646	0.1593	-0.010223	0.067596	-0.006561	0.20721	0.086365	-0.004578	-0.014343
37.884	-0.006104	0.039978	-0.20279	-0.020447	0.007935	-0.008698	0.30701	0.007935	0.13077	0.002747	0.04425	0.004578	-0.068359	-0.21027	0.053406	-0.026398	-0.09201	-1.315	-0.35828	-0.00473	-0.26611	0.15198	0.40588	0.16953	0.094604	-0.005035	-0.0383	-0.007935	0.066833	0.17441	-0.000916	-0.00824
37.885	-0.003204	0.034943	-0.17975	-0.02243	0.004272	0.006866	0.41885	0.003052	0.14099	0.005951	0.025482	0.00473	-0.04715	-0.20294	-0.16937	-0.019684	-0.087128	-1.3289	-0.72555	0.055237	-0.19806	0.20584	0.19898	0.16266	0.024261	0.020752	-0.22858	0.027161	0.026703	0.4422	-0.00473	-0.004272
37.886	0	0.019531	-0.16983	-0.010681	0.002136	-0.007477	0.43854	0.005035	0.12985	-0.011444	0.059509	0.004883	-0.053711	-0.17456	-0.000153	-0.015564	-0.05661	-1.4049	-0.65002	-0.001068	0.070801	0.076752	0.019684	0.10315	-0.059662	0.037384	-0.21988	0.016327	0.0383	0.28351	0.000153	-0.003357
37.887	-0.002289	0.039673	-0.15701	-0.001068	0.007477	-0.00824	0.42145	0.007172	0.13001	0.022278	0.15595	0.007019	-0.074463	-0.13229	0.29434	-0.010834	-0.032043	-1.3957	-0.18478	-0.003204	0.039368	-0.10712	0.16632	0.0177	-0.11322	0.014496	-0.20233	0.002441	0.088043	0.028687	-0.000916	-0.006714
37.888	-0.007782	0.035858	-0.16098	0.045166	0.010681	-0.029144	0.47974	0.015869	0.12878	0.019836	0.098877	-0.006561	-0.065002	-0.081177	0.36468	-0.006409	-0.024109	-1.4952	0.57205	-0.0383	-0.000458	-0.095062	0.31113	0.031433	-0.063324	0.003052	-0.14114	0.006409	0.083618	0.15457	-0.002441	-0.014954
37.889	-0.00473	0.027161	-0.17044	0.048981	0.007172	-0.026703	0.56351	0.009003	0.1294	-0.032806	-0.051575	0.003815	-0.000916	-0.027771	0.33875	-0.000305	-0.036926	-1.5768	0.027008	0.046844	0.52002	-0.072174	0.41794	-0.11505	-0.073242	0.011749	-0.14267	-0.002594	0.043793	0.061493	0	-0.017548
37.89	-0.011444	0.027313	-0.17425	0.021515	0.004272	-0.032959	0.56274	0.018005	0.13672	-0.007172	-0.13916	-0.007782	0.013885	-0.050964	0.32303	-0.012512	-0.051575	-1.5018	-0.94772	-0.007782	0.40787	-0.084991	0.4129	-0.15854	0.007782	0.011597	-0.2066	-0.008392	0.037689	-0.005493	-0.003357	-0.005493
37.891	-0.014038	0.078888	-0.18219	0.001831	0.009155	-0.030365	0.51239	0.019836	0.15549	-0.00885	-0.077667	0.003662	-0.057068	-0.13138	0.1973	-0.016327	-0.034943	-1.3585	-1.1217	-0.11993	0.059662	-0.025787	0.25787	-0.20096	0.072937	0.006409	-0.17838	0.002289	0.1004	0.077515	-0.002899	-0.010834
37.892	-0.012665	0.080109	-0.15701	-0.014191	0.009918	-0.012054	0.37827	0.018463	0.15671	-0.00946	-0.083313	0.00473	-0.029297	-0.071411	0.56473	-0.000916	-0.01358	-1.3524	-1.0141	-0.15869	-0.004425	-0.068512	-0.010223	-0.18433	0.14771	-0.003204	-0.18341	-0.019989	0.12833	-0.029755	-0.003662	-0.01358
37.893	-0.016937	0.095978	-0.12741	-0.011749	0.011902	-0.019684	0.28748	0.009766	0.19394	-0.018005	0.080109	0.006561	-0.039825	-0.063171	-0.11932	0.000763	-0.007172	-1.3405	-0.26718	-0.11871	0.00885	-0.073395	-0.2652	-0.09201	0.067139	-0.018768	-0.28473	-0.20187	0.17029	-0.080109	-0.003357	-0.008698
37.894	-0.012207	0.10254	-0.12207	0.00885	0.010376	-0.030212	0.29572	0.011292	0.22537	-0.025024	0.18875	0.006866	-0.00946	-0.036011	0.4567	0.016174	-0.022888	-1.3237	0.047455	-0.078125	-0.16052	0.007782	-0.18662	0.097046	0.095978	-0.010681	0.001678	-0.11322	0.12116	-0.09964	-0.009003	-0.007477
